<svg width="42" height="42" viewBox="0 0 42 42" fill="none" xmlns="http://www.w3.org/2000/svg">
<path d="M8.75525 38.5H33.2552C35.1855 38.5 36.7552 36.9302 36.7552 35V19.25C36.7555 19.0201 36.7103 18.7925 36.6223 18.5802C36.5343 18.3679 36.4052 18.175 36.2425 18.0127L22.2425 4.01274C22.0801 3.85008 21.8873 3.72104 21.675 3.633C21.4627 3.54495 21.2351 3.49963 21.0053 3.49963C20.7754 3.49963 20.5478 3.54495 20.3355 3.633C20.1232 3.72104 19.9304 3.85008 19.768 4.01274L5.768 18.0127C5.60525 18.175 5.47618 18.3679 5.38818 18.5802C5.30019 18.7925 5.25501 19.0201 5.25525 19.25V35C5.25525 36.9302 6.825 38.5 8.75525 38.5V38.5ZM17.5053 35V26.25H24.5053V35H17.5053ZM8.75525 19.9745L21.0053 7.72449L33.2552 19.9745L33.257 35H28.0053V26.25C28.0053 24.3197 26.4355 22.75 24.5053 22.75H17.5053C15.575 22.75 14.0053 24.3197 14.0053 26.25V35H8.75525V19.9745Z" fill="currentColor"/>
</svg>
