<svg width="42" height="42" viewBox="0 0 42 42" fill="none" xmlns="http://www.w3.org/2000/svg">
<path d="M17.5 31.5C20.6062 31.4994 23.6229 30.4595 26.0698 28.546L33.7627 36.239L36.2373 33.7645L28.5443 26.0715C30.4588 23.6244 31.4993 20.607 31.5 17.5C31.5 9.78075 25.2192 3.5 17.5 3.5C9.78075 3.5 3.5 9.78075 3.5 17.5C3.5 25.2193 9.78075 31.5 17.5 31.5ZM17.5 7C23.2908 7 28 11.7093 28 17.5C28 23.2908 23.2908 28 17.5 28C11.7092 28 7 23.2908 7 17.5C7 11.7093 11.7092 7 17.5 7Z" fill="currentColor"/>
</svg>
