<svg width="36" height="36" viewBox="0 0 36 36" fill="none" xmlns="http://www.w3.org/2000/svg">
<path d="M32.5125 21.9973L30.2098 20.0285C30.3188 19.3605 30.375 18.6785 30.375 17.9965C30.375 17.3145 30.3188 16.6324 30.2098 15.9645L32.5125 13.9957C32.6862 13.847 32.8105 13.649 32.8689 13.4279C32.9273 13.2069 32.917 12.9733 32.8395 12.7582L32.8078 12.6668C32.1739 10.895 31.2246 9.25255 30.0059 7.81875L29.9426 7.74492C29.7947 7.57108 29.5977 7.44612 29.3774 7.3865C29.1571 7.32688 28.9239 7.3354 28.7086 7.41094L25.8504 8.42695C24.7957 7.56211 23.618 6.88008 22.3453 6.40195L21.7934 3.41367C21.7517 3.18882 21.6426 2.98196 21.4806 2.82058C21.3186 2.65919 21.1113 2.55093 20.8863 2.51016L20.7914 2.49258C18.9598 2.16211 17.0332 2.16211 15.2016 2.49258L15.1066 2.51016C14.8816 2.55093 14.6744 2.65919 14.5123 2.82058C14.3503 2.98196 14.2413 3.18882 14.1996 3.41367L13.6441 6.41602C12.3816 6.89424 11.2059 7.57591 10.1637 8.43398L7.28438 7.41094C7.0691 7.3348 6.83575 7.32597 6.61534 7.38562C6.39492 7.44528 6.19788 7.5706 6.05039 7.74492L5.98711 7.81875C4.76982 9.25356 3.8207 10.8958 3.18516 12.6668L3.15352 12.7582C2.99532 13.1977 3.12539 13.6898 3.48047 13.9957L5.81133 15.9855C5.70235 16.6465 5.64961 17.3215 5.64961 17.993C5.64961 18.668 5.70235 19.343 5.81133 20.0004L3.48047 21.9902C3.30679 22.1389 3.18248 22.337 3.12407 22.558C3.06567 22.7791 3.07594 23.0127 3.15352 23.2277L3.18516 23.3191C3.82149 25.091 4.76368 26.7258 5.98711 28.1672L6.05039 28.241C6.19824 28.4149 6.39529 28.5398 6.61557 28.5994C6.83586 28.6591 7.06904 28.6505 7.28438 28.575L10.1637 27.552C11.2113 28.4133 12.382 29.0953 13.6441 29.5699L14.1996 32.5723C14.2413 32.7971 14.3503 33.004 14.5123 33.1654C14.6744 33.3267 14.8816 33.435 15.1066 33.4758L15.2016 33.4934C17.05 33.8256 18.9429 33.8256 20.7914 33.4934L20.8863 33.4758C21.1113 33.435 21.3186 33.3267 21.4806 33.1654C21.6426 33.004 21.7517 32.7971 21.7934 32.5723L22.3453 29.584C23.6175 29.1071 24.8018 28.4229 25.8504 27.559L28.7086 28.575C28.9239 28.6511 29.1572 28.66 29.3776 28.6003C29.5981 28.5407 29.7951 28.4153 29.9426 28.241L30.0059 28.1672C31.2293 26.7223 32.1715 25.091 32.8078 23.3191L32.8395 23.2277C32.9977 22.7953 32.8676 22.3031 32.5125 21.9973V21.9973ZM27.7137 16.3793C27.8016 16.9102 27.8473 17.4551 27.8473 18C27.8473 18.5449 27.8016 19.0898 27.7137 19.6207L27.4816 21.0305L30.1078 23.277C29.7097 24.1941 29.2072 25.0624 28.6102 25.8645L25.3477 24.7078L24.2438 25.6148C23.4035 26.3039 22.4684 26.8453 21.4559 27.225L20.1164 27.7277L19.4871 31.1379C18.4942 31.2504 17.4917 31.2504 16.4988 31.1379L15.8695 27.7207L14.5406 27.2109C13.5387 26.8313 12.607 26.2898 11.7738 25.6043L10.6699 24.6938L7.38633 25.8609C6.78868 25.0559 6.28946 24.1875 5.88868 23.2734L8.54297 21.0059L8.31446 19.5996C8.23008 19.0758 8.18438 18.5344 8.18438 18C8.18438 17.4621 8.22657 16.9242 8.31446 16.4004L8.54297 14.9941L5.88868 12.7266C6.28594 11.809 6.78868 10.9441 7.38633 10.1391L10.6699 11.3063L11.7738 10.3957C12.607 9.71016 13.5387 9.16875 14.5406 8.78906L15.8731 8.28633L16.5023 4.86914C17.4902 4.75664 18.4992 4.75664 19.4906 4.86914L20.1199 8.2793L21.4594 8.78203C22.4684 9.16172 23.407 9.70313 24.2473 10.3922L25.3512 11.2992L28.6137 10.1426C29.2113 10.9477 29.7106 11.816 30.1113 12.7301L27.4852 14.9766L27.7137 16.3793ZM18 11.4609C14.5828 11.4609 11.8125 14.2313 11.8125 17.6484C11.8125 21.0656 14.5828 23.8359 18 23.8359C21.4172 23.8359 24.1875 21.0656 24.1875 17.6484C24.1875 14.2313 21.4172 11.4609 18 11.4609ZM20.7844 20.4328C20.4192 20.7991 19.9852 21.0895 19.5073 21.2874C19.0295 21.4853 18.5172 21.5867 18 21.5859C16.9488 21.5859 15.9609 21.1746 15.2156 20.4328C14.8494 20.0676 14.559 19.6336 14.3611 19.1558C14.1632 18.6779 14.0617 18.1656 14.0625 17.6484C14.0625 16.5973 14.4738 15.6094 15.2156 14.8641C15.9609 14.1188 16.9488 13.7109 18 13.7109C19.0512 13.7109 20.0391 14.1188 20.7844 14.8641C21.1506 15.2293 21.4411 15.6633 21.6389 16.1411C21.8368 16.619 21.9383 17.1312 21.9375 17.6484C21.9375 18.6996 21.5262 19.6875 20.7844 20.4328Z" fill="black"/>
</svg>
